<?xml version="1.0" encoding="UTF-8"?>
<svg width="13px" height="10px" viewBox="0 0 13 10" version="1.1" xmlns="http://www.w3.org/2000/svg" xmlns:xlink="http://www.w3.org/1999/xlink">
    <!-- Generator: Sketch 51.3 (57544) - http://www.bohemiancoding.com/sketch -->
    <title>left-arrow</title>
    <desc>Created with Sketch.</desc>
    <defs></defs>
    <g id="B-Customer" stroke="none" stroke-width="1" fill="none" fill-rule="evenodd">
        <g id="B2_2_Customer-Response-Collection" transform="translate(-74.000000, -141.000000)" fill="#B0B3B3" fill-rule="nonzero">
            <g id="Group" transform="translate(70.000000, 141.000000)">
                <g id="left-arrow" transform="translate(4.000000, 0.000000)">
                    <path d="M12.4748711,4.40776278 L0.525128906,4.40776278 C0.235117187,4.40776278 0,4.63794744 0,4.921875 C0,5.20582741 0.235117187,5.43598722 0.525128906,5.43598722 L12.4748711,5.43598722 C12.7649082,5.43598722 13,5.20582741 13,4.921875 C13,4.63794744 12.7649082,4.40776278 12.4748711,4.40776278 Z" id="Shape"></path>
                    <path d="M1.26780469,4.921875 L5.37760742,0.898267045 C5.5826875,0.697489347 5.5826875,0.371974432 5.37760742,0.171196733 C5.17252734,-0.029556108 4.84003711,-0.029556108 4.63495703,0.171196733 L0.153816406,4.55832741 C-0.0512636719,4.75910511 -0.0512636719,5.08462003 0.153816406,5.28539773 L4.63495703,9.67252841 C4.73748437,9.77292969 4.87190234,9.8231179 5.00629492,9.8231179 C5.1406875,9.8231179 5.27510547,9.77292969 5.37763281,9.67252841 C5.58271289,9.47175071 5.58271289,9.1462358 5.37763281,8.9454581 L1.26780469,4.921875 Z" id="Shape"></path>
                </g>
            </g>
        </g>
    </g>
</svg>