<?xml version="1.0" encoding="UTF-8"?>
<svg width="19px" height="21px" viewBox="0 0 19 21" version="1.1" xmlns="http://www.w3.org/2000/svg" xmlns:xlink="http://www.w3.org/1999/xlink">
    <!-- Generator: Sketch 51.3 (57544) - http://www.bohemiancoding.com/sketch -->
    <title>Group 16 Copy</title>
    <desc>Created with Sketch.</desc>
    <defs></defs>
    <g id="A-Migration-Engineer" stroke="none" stroke-width="1" fill="none" fill-rule="evenodd">
        <g id="A0_Migration-Engineer-V1" transform="translate(-856.000000, -360.000000)" fill="#666666" fill-rule="nonzero">
            <g id="Group-4" transform="translate(855.000000, 360.000000)">
                <g id="Group-16-Copy" transform="translate(1.000000, 0.000000)">
                    <path d="M4.66381233,0.678890625 L4.66381233,4.59375 L0.697708219,4.59375 L0.697708219,5.95149023 L5.3515895,5.95149023 C5.73146256,5.95149023 6.03936667,5.64756445 6.03936667,5.27259961 L6.03936667,0.678849609 L4.66381233,0.678849609 L4.66381233,0.678890625 Z" id="Shape"></path>
                    <path d="M13.2379653,0 L5.3515895,0 C5.16909087,0 4.99419635,0.0714902344 4.86534201,0.198925781 L0.211460731,4.79267578 C0.0823986301,4.91986523 0.00993105023,5.09274609 0.00993105023,5.27264062 L0.00993105023,16.587293 C0.00993105023,16.9622578 0.31783516,17.2661836 0.697708219,17.2661836 L7.27734064,17.2661836 C7.6572137,17.2661836 7.96511781,16.9622578 7.96511781,16.587293 C7.96511781,16.2123281 7.6572137,15.9084023 7.27734064,15.9084023 L1.38544384,15.9084023 L1.38544384,5.55367969 L5.63630731,1.35774023 L12.5501881,1.35774023 L12.5501881,10.1605547 C12.5501881,10.5353145 12.8580922,10.8394453 13.2379653,10.8394453 C13.6178384,10.8394453 13.9257425,10.5355195 13.9257425,10.1605547 L13.9257425,0.678890625 C13.9257009,0.303925781 13.6178384,0 13.2379653,0 Z" id="Shape"></path>
                    <path d="M9.84499498,7.51291406 L4.09067854,7.51291406 C3.71080548,7.51291406 3.40290137,7.81683984 3.40290137,8.19180469 C3.40290137,8.56676953 3.71080548,8.87069531 4.09067854,8.87069531 L9.84499498,8.87069531 C10.2251174,8.87069531 10.5327721,8.56676953 10.5327721,8.19180469 C10.5327306,7.81683984 10.224868,7.51291406 9.84499498,7.51291406 Z" id="Shape"></path>
                    <path d="M9.84499498,10.2284355 L4.09067854,10.2284355 C3.71080548,10.2284355 3.40290137,10.5323613 3.40290137,10.9073262 C3.40290137,11.282291 3.71080548,11.5862168 4.09067854,11.5862168 L9.84499498,11.5862168 C10.2251174,11.5862168 10.5327721,11.282291 10.5327721,10.9073262 C10.5327721,10.5323613 10.224868,10.2284355 9.84499498,10.2284355 Z" id="Shape"></path>
                    <path d="M12.9170137,11.9709023 C10.7679594,11.9709023 9.019679,13.6965937 9.019679,15.8178809 C9.019679,17.939168 10.7679594,19.6648594 12.9170137,19.6648594 C15.066068,19.6648594 16.8143484,17.939168 16.8143484,15.8178809 C16.8143484,13.6965937 15.0660265,11.9709023 12.9170137,11.9709023 Z M12.9170137,18.3071191 C11.5265836,18.3071191 10.3951918,17.1903457 10.3951918,15.8178809 C10.3951918,14.445416 11.5265836,13.3286426 12.9170137,13.3286426 C14.3074438,13.3286426 15.4388356,14.445416 15.4388356,15.8178809 C15.4387941,17.1903457 14.3074438,18.3071191 12.9170137,18.3071191 Z" id="Shape"></path>
                    <path d="M17.9860461,19.8388887 L15.693511,17.5988203 C15.4234612,17.3349668 14.9883233,17.3367715 14.721016,17.6035781 C14.4534594,17.8701387 14.4557863,18.2999004 14.7258361,18.5635078 L17.0183712,20.8035762 C17.1525027,20.9345801 17.3271895,21 17.502084,21 C17.6790562,21 17.8562776,20.9327754 17.9908662,20.7988184 C18.2584228,20.5322578 18.2561374,20.1025371 17.9860461,19.8388887 Z" id="Shape"></path>
                </g>
            </g>
        </g>
    </g>
</svg>