<?xml version="1.0" encoding="UTF-8"?>
<svg width="19px" height="20px" viewBox="0 0 19 20" version="1.1" xmlns="http://www.w3.org/2000/svg" xmlns:xlink="http://www.w3.org/1999/xlink">
    <!-- Generator: Sketch 51.3 (57544) - http://www.bohemiancoding.com/sketch -->
    <title>Group 17 Copy</title>
    <desc>Created with Sketch.</desc>
    <defs></defs>
    <g id="A-Migration-Engineer" stroke="none" stroke-width="1" fill="none" fill-rule="evenodd">
        <g id="A0_Migration-Engineer-V1" transform="translate(-855.000000, -599.000000)" fill="#666666" fill-rule="nonzero">
            <g id="Group-4" transform="translate(855.000000, 360.000000)">
                <g id="Group-17-Copy" transform="translate(0.000000, 239.000000)">
                    <path d="M18.4179971,19.0398471 L18.4179971,6.1728101 C18.4179971,5.96663173 18.3316546,5.77260919 18.1836139,5.63919462 L12.2249782,0.194022537 C12.0892598,0.0727638015 11.904209,0 11.7191582,0 L2.50362845,0 C2.09651669,0 1.76342525,0.327437107 1.76342525,0.727638015 L1.76342525,8.85291492 C1.76342525,9.25311583 2.09651669,9.58055294 2.50362845,9.58055294 C2.9107402,9.58055294 3.24383164,9.25311583 3.24383164,8.85291492 L3.24383164,1.45527603 L10.7692163,1.45527603 L10.7692163,7.03381988 C10.7692163,7.43402079 11.1023077,7.7614579 11.5094194,7.7614579 L16.8141945,7.7614579 C16.8512046,7.7614579 16.900537,7.7614579 16.9375472,7.74934486 L16.9375472,18.3122091 L3.24383164,18.3122091 L3.24383164,15.4016571 C3.24383164,15.0014561 2.9107402,14.674019 2.50362845,14.674019 C2.09651669,14.674019 1.76342525,15.0014561 1.76342525,15.4016571 L1.76342525,19.0398471 C1.76342525,19.440048 2.09651669,19.7674852 2.50362845,19.7674852 L17.6777939,19.7674852 C18.0849057,19.7674852 18.4179971,19.440048 18.4179971,19.0398471 Z M12.2496226,2.20718291 L16.727852,6.30622467 L12.2496226,6.30622467 L12.2496226,2.20718291 Z" id="Shape"></path>
                    <path d="M0.0362699565,12.0060273 C0.0362699565,12.4062282 0.369361393,12.7336653 0.776473149,12.7336653 L8.48690856,12.7336653 L6.10593614,14.8195466 C5.79753266,15.086333 5.7728447,15.5471847 6.04423803,15.8503529 C6.19227866,16.0079935 6.38965167,16.0929132 6.59939042,16.0929132 C6.77211901,16.0929132 6.94480406,16.0322624 7.0928447,15.9110037 L10.9419013,12.5395999 C11.1022642,12.4061854 11.1886502,12.2000498 11.1886502,11.9938714 C11.1886502,11.787693 11.1023077,11.5936705 10.9419013,11.4481429 L7.09288824,8.07678197 C6.78448476,7.80999563 6.31567489,7.8342217 6.04428157,8.13743274 C5.77288824,8.44060098 5.79753266,8.90145266 6.10597968,9.16823899 L8.52396226,11.2783892 L0.776473149,11.2783892 C0.369361393,11.2783892 0.0362699565,11.6058263 0.0362699565,12.0060273 Z" id="Shape"></path>
                </g>
            </g>
        </g>
    </g>
</svg>