<?xml version="1.0" encoding="UTF-8"?>
<svg width="51px" height="36px" viewBox="0 0 51 36" version="1.1" xmlns="http://www.w3.org/2000/svg" xmlns:xlink="http://www.w3.org/1999/xlink">
    <!-- Generator: Sketch 51.3 (57544) - http://www.bohemiancoding.com/sketch -->
    <title>question</title>
    <desc>Created with Sketch.</desc>
    <defs></defs>
    <g id="B-Customer" stroke="none" stroke-width="1" fill="none" fill-rule="evenodd">
        <g id="B2_0_Customer-Response-Collection" transform="translate(-160.000000, -272.000000)" fill="#221F20" fill-rule="nonzero">
            <g id="Group" transform="translate(80.000000, 126.000000)">
                <g id="question" transform="translate(80.000000, 146.000000)">
                    <path d="M46.8216351,10.9127853 L29.4443535,10.9127853 C28.6710554,8.21155806 27.1526502,5.74882746 25.0264719,3.83918519 C21.8038743,0.944529229 17.6413769,-0.384434118 13.3047405,0.096388454 C6.3499516,0.868041424 0.78778454,6.49937019 0.0791889467,13.4864674 C-0.307753777,17.3006462 0.732087497,21.0715245 3.00685652,24.104428 C5.18687206,27.0107682 8.31510772,29.0199723 11.8364529,29.7812174 L15.5409425,33.4970127 C15.8519258,33.8090515 16.2648083,33.9743005 16.6860111,33.9742023 C16.895291,33.9742023 17.1065286,33.9333564 17.3083692,33.8495046 C17.9166318,33.5967708 18.3094477,33.0068623 18.3094477,32.3465536 L18.3094477,29.7450845 C18.9185913,29.6085062 19.5119753,29.435304 20.0882292,29.2289146 L20.0882292,29.3320111 C20.0882292,31.1549541 21.5667948,32.6380713 23.3841433,32.6380713 L28.9185108,32.6380713 L31.8667344,35.5953707 C32.1304388,35.8598869 32.4803807,36 32.8373704,36 C33.0147395,36 33.1937727,35.9653399 33.3648772,35.8943506 C33.8804419,35.6801062 34.2135474,35.1800389 34.2135474,34.6202739 L34.2135474,32.6380713 L46.821733,32.6380713 C48.6390815,32.6380713 50.1176471,31.1549541 50.1176471,29.3320111 L50.1176471,14.2186491 C50.1175492,12.3959025 48.6389836,10.9127853 46.8216351,10.9127853 Z M17.3869716,28.3256908 C17.0125582,28.3926544 16.740044,28.7191268 16.740044,29.1005839 L16.740044,32.3466518 C16.740044,32.3654055 16.740044,32.3817046 16.7077417,32.3951562 C16.6754394,32.4084115 16.6640846,32.3970218 16.6506743,32.3838647 L12.7803661,28.5016422 C12.670636,28.3915744 12.5307572,28.3164612 12.3784468,28.2862195 C9.13999169,27.6406389 6.25715583,25.8193651 4.2609699,23.1580018 C2.22445501,20.4427338 1.29375644,17.0646043 1.64046809,13.6458252 C1.94596979,10.6329519 3.30589776,7.76706474 5.46966425,5.57582167 C7.63382227,3.38428403 10.4775038,1.99405189 13.4772154,1.66129557 C13.9991427,1.60336514 14.5175461,1.57469449 15.0321319,1.57469449 C18.3497767,1.57469449 21.4812426,2.76806135 23.9793871,5.01193275 C26.8261031,7.56892303 28.458741,11.23209 28.458741,15.0622733 C28.4588389,21.5997714 23.8025074,27.1777846 17.3869716,28.3256908 Z M48.5480476,29.3321093 C48.5480476,30.2869795 47.7735749,31.0638364 46.8216351,31.0638364 L33.4287966,31.0638364 C32.995456,31.0638364 32.6440458,31.4162302 32.6440458,31.8510029 L32.6440458,34.1488773 L29.7984066,31.2944781 C29.6512842,31.1468046 29.4516949,31.0639346 29.2435897,31.0639346 L23.3842412,31.0639346 C22.4323014,31.0639346 21.6578286,30.2870777 21.6578286,29.3322075 L21.6578286,28.5645802 C26.6813299,26.087907 30.0283404,20.9201199 30.0283404,15.0623715 C30.0283404,14.1932186 29.9518916,13.3321172 29.8051607,12.4871184 L46.821733,12.4871184 C47.7736727,12.4871184 48.5481455,13.2639753 48.5481455,14.2188455 L48.5481455,29.3321093 L48.5480476,29.3321093 Z" id="Shape"></path>
                    <path d="M44.2408336,17.1697052 C43.9345757,16.8650002 43.4379095,16.8650002 43.1315537,17.1697052 L35.3190409,24.9401199 L31.691988,21.3326116 C31.3856322,21.0279066 30.888966,21.0279066 30.582708,21.3326116 C30.2763522,21.6373165 30.2763522,22.1313064 30.582708,22.4359141 L34.764352,26.595025 C34.9174809,26.7473288 35.1182609,26.8235294 35.318943,26.8235294 C35.5196251,26.8235294 35.7205029,26.7474262 35.8736319,26.595025 L44.2407358,18.2730077 C44.5471894,17.9683028 44.5471894,17.4743128 44.2408336,17.1697052 Z" id="Shape"></path>
                    <path d="M14.824013,21.1764706 C14.8237492,21.1764706 14.8233975,21.1764706 14.8230458,21.1764706 C14.4337663,21.1764706 14.1176471,21.4926095 14.1176471,21.8819132 C14.1176471,21.8820012 14.1176471,21.8821771 14.1176471,21.8823529 C14.1176471,21.8825288 14.1176471,21.8826168 14.1176471,21.8827926 C14.1176471,22.2720964 14.4337663,22.5882353 14.8230458,22.5882353 C14.8233096,22.5882353 14.8237492,22.5882353 14.824013,22.5882353 C15.2132925,22.5882353 15.5294118,22.2720964 15.5294118,21.8827926 C15.5294118,21.8827047 15.5294118,21.8825288 15.5294118,21.8823529 C15.5294118,21.8821771 15.5294118,21.8820891 15.5294118,21.8819132 C15.5294118,21.4926095 15.2132925,21.1764706 14.824013,21.1764706 Z" id="Shape"></path>
                    <path d="M18.2990281,9.19814977 C17.3538941,8.27367889 16.1194393,7.76461069 14.8229942,7.76470588 C12.0987272,7.76489626 9.88235294,9.93310032 9.88235294,12.5977125 C9.88235294,13.0191121 10.2316204,13.3608388 10.6625361,13.3608388 C11.0933545,13.3608388 11.4427193,13.0192073 11.4427193,12.5977125 C11.4427193,10.7744716 12.9591962,9.29095858 14.8231888,9.29086339 C15.7028291,9.29086339 16.5453919,9.64106195 17.1957554,10.2772068 C17.8461189,10.9133517 18.2042422,11.7375891 18.2042422,12.5979981 C18.2041449,14.0474336 17.2139535,15.3499933 15.7964472,15.7657768 C14.7477688,16.0733309 14.0433949,16.992376 14.0433949,18.0525857 L14.0433949,18.2956972 C14.0433949,18.7170968 14.3926624,19.0588235 14.8235781,19.0588235 C15.2543965,19.0588235 15.6037613,18.7171919 15.6037613,18.2956972 L15.6037613,18.0525857 C15.6037613,17.6716413 15.861357,17.3400997 16.2447824,17.227682 C18.3171289,16.6198081 19.7646086,14.716133 19.7647059,12.5980933 C19.7646086,11.330087 19.244162,10.1225255 18.2990281,9.19814977 Z" id="Shape"></path>
                </g>
            </g>
        </g>
    </g>
</svg>