<?xml version="1.0" encoding="UTF-8"?>
<svg width="51px" height="61px" viewBox="0 0 51 61" version="1.1" xmlns="http://www.w3.org/2000/svg" xmlns:xlink="http://www.w3.org/1999/xlink">
    <!-- Generator: Sketch 51.3 (57544) - http://www.bohemiancoding.com/sketch -->
    <title>Group 13</title>
    <desc>Created with Sketch.</desc>
    <defs></defs>
    <g id="A-Migration-Engineer" stroke="none" stroke-width="1" fill="none" fill-rule="evenodd">
        <g id="A5_Migration-Engineer-V2" transform="translate(-360.000000, -301.000000)" fill="#000000" fill-rule="nonzero">
            <g id="Group-16" transform="translate(273.500000, 228.500000)">
                <g id="Group-13" transform="translate(87.000000, 73.000000)">
                    <path d="M45.1473103,31.7511724 L45.1473103,4.82303448 L4.95586207,4.82303448 L4.95586207,55.0623448 L23.4438621,55.0623448 C24.7702069,55.0623448 25.8553103,56.1474483 25.8553103,57.4737931 C25.8553103,58.8001379 24.7702069,59.8852414 23.4438621,59.8852414 L2.54427586,59.8852414 C1.21793103,59.8852414 0.132827586,58.8001379 0.132827586,57.4737931 L0.132827586,2.41144828 C0.132827586,1.08510345 1.21806897,0 2.54427586,0 L47.5586207,0 C48.8849655,0 49.970069,1.08510345 49.970069,2.41144828 L49.970069,31.7511724 C49.970069,33.0775172 48.8849655,34.1626207 47.5586207,34.1626207 C46.2322759,34.1626207 45.1473103,33.0775172 45.1473103,31.7511724 Z" id="Shape"></path>
                    <path d="M45.0444138,31.865931 L45.0444138,4.9377931 L4.85296552,4.9377931 L4.85296552,55.1771034 L23.3409655,55.1771034 C24.6673103,55.1771034 25.7524138,56.2622069 25.7524138,57.5885517 C25.7524138,58.9148966 24.6673103,60 23.3409655,60 L2.44137931,60 C1.11503448,60 0.0299310345,58.9148966 0.0299310345,57.5885517 L0.0299310345,2.5262069 C0.0299310345,1.19986207 1.11517241,0.114758621 2.44137931,0.114758621 L47.4557241,0.114758621 C48.782069,0.114758621 49.8671724,1.19986207 49.8671724,2.5262069 L49.8671724,31.865931 C49.8671724,33.1922759 48.782069,34.2773793 47.4557241,34.2773793 C46.1293793,34.2773793 45.0444138,33.1922759 45.0444138,31.865931 Z" id="Shape" transform="translate(24.948552, 30.057379) scale(-1, -1) translate(-24.948552, -30.057379) "></path>
                    <path d="M38.4645822,13 L11.9595557,13 C10.3397657,13 9.01459017,14.3251755 9.01459017,15.9449655 C9.01459017,17.5647555 10.3397657,18.889931 11.9595557,18.889931 L38.4645822,18.889931 C40.0843722,18.889931 41.4095478,17.5647555 41.4095478,15.9449655 C41.4095478,14.3251755 40.0843722,13 38.4645822,13 Z" id="Path"></path>
                </g>
            </g>
        </g>
    </g>
</svg>