<?xml version="1.0" encoding="UTF-8"?>
<svg width="57px" height="61px" viewBox="0 0 57 61" version="1.1" xmlns="http://www.w3.org/2000/svg" xmlns:xlink="http://www.w3.org/1999/xlink">
    <!-- Generator: Sketch 51.3 (57544) - http://www.bohemiancoding.com/sketch -->
    <title>Group 14</title>
    <desc>Created with Sketch.</desc>
    <defs></defs>
    <g id="A-Migration-Engineer" stroke="none" stroke-width="1" fill="none" fill-rule="evenodd">
        <g id="A5_Migration-Engineer-V2" transform="translate(-614.000000, -301.000000)" fill="#000000" fill-rule="nonzero">
            <g id="Group-16" transform="translate(273.500000, 228.500000)">
                <g id="Group-14" transform="translate(341.000000, 73.000000)">
                    <path d="M32.784569,51.620819 C31.5411207,51.620819 30.5238362,52.6381034 30.5238362,53.8815517 C30.5238362,55.125 31.5411207,56.1422845 32.784569,56.1422845 L53.5082328,56.1422845 C54.751681,56.1422845 55.7689655,55.125 55.7689655,53.8815517 L55.7689655,17.8977155 C55.7689655,17.2571121 55.5051724,16.6542672 55.0531034,16.2398276 L38.0974138,0.602844828 C37.6828448,0.226034483 37.1176293,0 36.5525431,0 L11.3072845,0 C10.0638362,0 9.04655172,1.01728448 9.04655172,2.26073276 L9.04655172,26.7523707 C9.04655172,27.995819 10.0638362,29.0131034 11.3072845,29.0131034 C12.5507328,29.0131034 13.5680172,27.995819 13.5680172,26.7523707 L13.5680172,4.52159483 L31.6541379,4.52159483 L31.6541379,24.1149569 C31.6541379,25.3584052 32.6714224,26.3756897 33.9148707,26.3756897 L50.8706897,26.3756897 C50.9837069,26.3756897 51.1344828,26.3756897 51.2475,26.3380603 L51.2475,51.6209483 L32.784569,51.6209483 L32.784569,51.620819 Z M50.8706897,21.8540948 L36.1757328,21.8540948 L36.1757328,4.97366379 L51.2475,18.8773707 L51.2475,21.8917241 C51.1344828,21.8540948 50.9837069,21.8540948 50.8706897,21.8540948 Z M0.00336206897,48.2297845 C0.00336206897,46.9863362 1.02064655,45.9690517 2.26409483,45.9690517 L9.04642241,45.9690517 L9.04642241,38.8099138 C9.04642241,37.5664655 10.0637069,36.549181 11.3071552,36.549181 C12.5506034,36.549181 13.5678879,37.5664655 13.5678879,38.8099138 L13.5678879,45.9690517 L21.1038362,45.9690517 C22.3472845,45.9690517 23.364569,46.9863362 23.364569,48.2297845 C23.364569,49.4732328 22.3472845,50.4905172 21.1038362,50.4905172 L13.5678879,50.4905172 L13.5678879,57.6496552 C13.5678879,58.8931034 12.5506034,59.9103879 11.3071552,59.9103879 C10.0637069,59.9103879 9.04642241,58.8931034 9.04642241,57.6496552 L9.04642241,50.4905172 L2.26422414,50.4905172 C1.02077586,50.4905172 0.00336206897,49.4731034 0.00336206897,48.2297845 Z" id="Shape"></path>
                </g>
            </g>
        </g>
    </g>
</svg>