<?xml version="1.0" encoding="UTF-8"?>
<svg width="22px" height="22px" viewBox="0 0 22 22" version="1.1" xmlns="http://www.w3.org/2000/svg" xmlns:xlink="http://www.w3.org/1999/xlink">
    <!-- Generator: Sketch 51.3 (57544) - http://www.bohemiancoding.com/sketch -->
    <title>success</title>
    <desc>Created with Sketch.</desc>
    <defs></defs>
    <g id="Symbols" stroke="none" stroke-width="1" fill="none" fill-rule="evenodd">
        <g id="Icon/Add/1-Copy" fill="#13A1DB" fill-rule="nonzero">
            <g id="success">
                <path d="M11,0 C4.93476923,0 0,4.93434615 0,11 C0,17.0656538 4.93476923,22 11,22 C17.0652308,22 22,17.0656538 22,11 C22,4.93434615 17.0652308,0 11,0 Z M11,21.1538462 C5.40142308,21.1538462 0.846153846,16.5985769 0.846153846,11 C0.846153846,5.40142308 5.40142308,0.846153846 11,0.846153846 C16.5985769,0.846153846 21.1538462,5.40142308 21.1538462,11 C21.1538462,16.5985769 16.5985769,21.1538462 11,21.1538462 Z" id="Shape"></path>
                <path d="M16.2505682,6.15141005 L9.66406067,13.9317254 L5.69604239,10.5986545 C5.51176246,10.4434082 5.24134238,10.4753574 5.09391844,10.6688528 C4.94606594,10.8632482 4.97606499,11.1462915 5.16077348,11.3015378 L9.44635322,14.9014523 C9.52520789,14.9676008 9.6199192,15 9.71420195,15 C9.83248395,15 9.9503374,14.9487012 10.0347633,14.8488036 L16.8916909,6.74899586 C17.0489717,6.56360027 17.033115,6.27875703 16.8561206,6.11406094 C16.6786976,5.94846487 16.4082775,5.96511447 16.2505682,6.15141005 Z" id="Shape"></path>
            </g>
        </g>
    </g>
</svg>