<?xml version="1.0" encoding="UTF-8"?>
<svg width="22px" height="22px" viewBox="0 0 22 22" version="1.1" xmlns="http://www.w3.org/2000/svg" xmlns:xlink="http://www.w3.org/1999/xlink">
    <!-- Generator: Sketch 51.3 (57544) - http://www.bohemiancoding.com/sketch -->
    <title>plus (1)</title>
    <desc>Created with Sketch.</desc>
    <defs></defs>
    <g id="Symbols" stroke="none" stroke-width="1" fill="none" fill-rule="evenodd">
        <g id="Icon/Add/1-Copy-4" fill="#13A1DB" fill-rule="nonzero">
            <g id="plus-(1)">
                <path d="M11,0 C4.93476923,0 0,4.93434615 0,11 C0,17.0656538 4.93476923,22 11,22 C17.0652308,22 22,17.0656538 22,11 C22,4.93434615 17.0652308,0 11,0 Z M11,21.1538462 C5.40142308,21.1538462 0.846153846,16.5985769 0.846153846,11 C0.846153846,5.40142308 5.40142308,0.846153846 11,0.846153846 C16.5985769,0.846153846 21.1538462,5.40142308 21.1538462,11 C21.1538462,16.5985769 16.5985769,21.1538462 11,21.1538462 Z" id="Shape"></path>
                <g id="new-file" transform="translate(6.000000, 6.000000)">
                    <path d="M6.34927536,1.2634058 L0.603200483,7.00948068 C0.557548309,7.05513285 0.524879227,7.11207729 0.508695652,7.17457729 L0.0155193237,9.07397343 C-0.0167270531,9.19830918 0.0192028986,9.3303744 0.110024155,9.42125604 C0.178864734,9.49003623 0.271316425,9.52735507 0.366183575,9.52735507 C0.396557971,9.52735507 0.427113527,9.52355072 0.457246377,9.51576087 L2.35664251,9.02252415 C2.41914251,9.00628019 2.47614734,8.97361111 2.52173913,8.92801932 L8.26769324,3.18206522 C8.26781401,3.18194444 8.26793478,3.18188406 8.26799517,3.18182367 C8.26805556,3.18176329 8.26817633,3.18158213 8.26823671,3.18152174 L9.425,2.02475845 C9.56654589,1.88327295 9.56654589,1.65386473 9.42506039,1.51243961 L8.01896135,0.10615942 C7.95096618,0.0381642512 7.85887681,0 7.76274155,0 C7.66666667,0 7.57451691,0.0381642512 7.50658213,0.10615942 L6.34987923,1.26286232 C6.34975845,1.26298309 6.34963768,1.26304348 6.34957729,1.26310386 C6.34951691,1.26316425 6.34939614,1.26334541 6.34927536,1.2634058 Z M2.07916667,8.34589372 L0.871859903,8.65942029 L1.18532609,7.45211353 L6.60573671,2.0317029 L7.49951691,2.92554348 L2.07916667,8.34589372 Z M7.76274155,0.874698068 L8.65652174,1.76853865 L8.01189614,2.41316425 L7.11811594,1.51932367 L7.76274155,0.874698068 Z" id="Shape"></path>
                </g>
            </g>
        </g>
    </g>
</svg>